<svg id="Grupo_1083382" data-name="Grupo 1083382" xmlns="http://www.w3.org/2000/svg" xmlns:xlink="http://www.w3.org/1999/xlink" width="295" height="233.02" viewBox="0 0 295 233.02">
  <defs>
    <clipPath id="clip-path">
      <rect id="Rectángulo_381350" data-name="Rectángulo 381350" width="295" height="233.02" fill="none"/>
    </clipPath>
  </defs>
  <g id="Grupo_1083381" data-name="Grupo 1083381" clip-path="url(#clip-path)">
    <path id="Trazado_843202" data-name="Trazado 843202" d="M128.319,160.37c-.025,2.235-.211,3.97-3.361,3.892-8.216-.2-16.442-.061-24.664-.079-1.325,0-2.425.023-2.928-1.848-2.722-10.1,2.844-22.709,12.148-27.434a22,22,0,0,1,12.246-2.143c3.58.331,4.932-.883,4.415-4.422a13.972,13.972,0,0,1,0-4.007c.586-3.974-.921-5.148-4.98-5.1-18.737.22-37.477.134-56.213.084-11.238-.031-16.484-4.42-18.041-15.559-.393-2.81-1.622-2.869-3.694-2.856-8.222.05-16.446.073-24.666.006C5.414,100.8-2.647,89.787.795,76.934c.525-1.963,1.664-1.724,2.928-1.726,12.428-.015,24.859.1,37.285-.086,3.082-.044,3.5,1.425,3.417,3.781.368,3.606-1.065,4.926-4.845,4.8-8.4-.28-16.819-.13-25.229-.05-1.576.015-3.83-.883-4.5,1.3-.655,2.135.4,4.11,2.122,5.579a9.338,9.338,0,0,0,6.41,1.967q32.687-.037,65.368,0a9.742,9.742,0,0,0,6-1.49c1.965-1.425,3.411-3.38,2.867-5.838-.613-2.762-3.154-1.479-4.807-1.5-10.128-.121-20.263-.23-30.387.027-3.765.094-5.23-1.168-4.863-4.792-.067-2.35.333-3.827,3.422-3.788,14.155.17,28.318.073,42.476.079,1.561,0,2.967-.065,3.168,2.227,1.218,13.824-3.779,24.218-18.966,23.542-7.257-.322-14.542-.161-21.807.021-1.777.044-4.6-1.5-5.169,1.752a6.431,6.431,0,0,0,2.722,6.548,9.736,9.736,0,0,0,5.983,1.578c19.323-.033,38.649-.08,57.973.046,3,.019,4.118-.887,5.094-3.827a21.447,21.447,0,0,1,40.715.188c1.021,3.135,2.434,3.635,5.248,3.622,19.133-.092,38.27-.063,57.4-.031,2.769,0,5.355-.333,7.345-2.484a6.054,6.054,0,0,0,1.549-6.353c-.785-2.1-3.024-1.046-4.591-1.069-8.609-.117-17.227.153-25.827-.159-11.064-.4-19.447-13.937-15.264-24.143.569-1.389,1.578-1.452,2.716-1.452,12.629-.011,25.26.079,37.885-.075,3.038-.036,2.785,1.756,2.871,3.65.439,3.947-1.231,5.11-5.209,4.935-8.015-.352-16.057-.2-24.088-.029-1.785.038-4.621-1.469-5.225,1.634-.525,2.7,1.191,4.708,3.47,6.073a10.386,10.386,0,0,0,5.548,1.1q32.414-.026,64.826,0c2.35,0,4.595-.237,6.508-1.718,1.779-1.373,2.921-3.265,2.474-5.47-.567-2.8-3.091-1.626-4.755-1.645-9.944-.111-19.9-.287-29.828.056-4.123.144-5.414-1.4-5.217-5.089.008-2.1.358-3.524,3.145-3.5,14.349.13,28.7.069,43.044.05,1.486,0,2.434.157,2.6,2.08,1.207,13.751-3.16,24.4-19.273,23.7-7.446-.324-14.921.04-22.379-.1-2.856-.056-4.229.251-4.562,3.815-.864,9.273-7.054,14.546-16.618,14.6-18.94.111-37.881.155-56.817-.056-4.256-.048-6.088.676-5.82,5.506.425,7.678.079,7.7,7.783,7.984A21.559,21.559,0,0,1,198.135,153c.18,2.283-.163,4.618.13,6.878.481,3.712-1.157,4.413-4.537,4.384q-26.4-.227-52.8-.006c-3.049.023-4.757-.643-4.524-3.963-.37-3.706,1.3-4.736,4.953-4.687,14.494.2,29-.094,43.491.186,4.732.092,5.2-2.053,4.039-5.485-1.906-5.65-6.134-8.969-11.985-9.034q-29.182-.328-58.368.021a12.481,12.481,0,0,0-12.118,10.287c-.444,2.752,0,4.332,3.369,4.164,4.568-.228,9.172.2,13.726-.132,3.786-.274,5.188,1.161,4.807,4.754m6.9-40.191c-.9,12.516-.9,12.516,11.436,12.516h2.291c12.336,0,12.336,0,11.436-12.516.063-2.467.295-4.945.155-7.4-.285-5.037-3.028-8.574-7.49-10.616-4.742-2.172-9.333-1.442-13.4,1.789-5.4,4.292-5.041,10.246-4.432,16.228" transform="translate(0 68.752)" fill="#030303"/>
    <path id="Trazado_843203" data-name="Trazado 843203" d="M2.844,40.169q-.026-3.942-.05-7.883c2.831.033,4.439-.72,4.28-4.2-.3-6.644.015-13.316-.132-19.972-.059-2.695.747-3.643,3.551-3.591,10.84.207,21.684.186,32.526.249.013,13.92.153,27.841-.042,41.759-.056,4.028,1.258,5.261,5.242,5.206,13.918-.193,27.841-.065,41.763-.059.08,22.358.113,44.714.3,67.071.025,3.055-1.007,3.94-3.963,3.855-6.494-.186-13,.1-19.495-.126-3.026-.107-4.079,1.2-4.227,3.867l-7.845.046c.176-3.277-1.513-3.945-4.537-3.905-12.208.167-24.423-.172-36.621.184-5.081.147-6.81-1.028-6.736-6.483.324-23.458.1-46.919.186-70.38.013-3.166-.124-5.74-4.2-5.635m45.641,67.875c8.984,0,17.969-.067,26.953.038,2.948.034,4.939.073,4.96-4.045.021-4.143-1.7-4.983-5.089-4.478-4.081.611-5.171-1.141-5.079-5.089.247-10.7-.071-21.408.169-32.107.084-3.83-1.161-4.8-4.888-4.855-4.1-.065-4.1,1.992-4.074,4.972.1,11.085-.054,22.172.1,33.256.042,3.036-.94,3.986-3.934,3.886-2.79-.094-4.87-.153-4.606-3.876.259-3.614-.184-7.28.119-10.886.328-3.92-1.7-4.2-4.824-4.3-3.382-.1-4.325,1.168-4.108,4.332.234,3.424-.1,6.887.1,10.315.169,2.984-.41,4.489-3.961,4.453-3.44-.034-4.721-.938-4.606-4.524.237-7.448-.086-14.912.132-22.358.117-3.922-2.224-3.572-4.815-3.677-2.758-.111-4.212.442-4.1,3.712.226,6.68-.178,13.387.149,20.062.232,4.757-.494,7.8-6.263,6.692-3.451-.665-4.01,1.289-4.068,4.309-.063,3.244.929,4.3,4.212,4.231,9.17-.193,18.348-.067,27.523-.067" transform="translate(2.557 4.136)" fill="#a4e3a5"/>
    <path id="Trazado_843204" data-name="Trazado 843204" d="M103.567,40.21q-.011-3.967-.021-7.933c3.758.431,4.755-1.323,4.593-4.918-.287-6.282.042-12.591-.136-18.882-.079-2.813.477-4.041,3.685-3.964,10.675.257,21.358.2,32.038.255l.144,8.5a73.921,73.921,0,0,1-7.408.333c-3.3-.165-4.288,1.264-4.275,4.409s1.438,3.953,4.221,3.842c2.474-.1,4.958.075,7.439.126q-.057,13.031-.115,26.058c-1.641.5-3.3.935-4.92,1.5C124.5,54.532,114.974,69.4,116.763,83.929c1.973,15.992,14.169,28.37,29.284,29.716,15.979,1.423,30.182-7.743,35.068-22.632,4.763-14.519-.147-27.543-14.782-39.189l24.61-.167c.124,22.521.213,45.042.412,67.563.027,2.993-1.459,3.4-3.915,3.361-6.493-.1-13,.161-19.48-.113-3.145-.134-4.018,1.21-4.012,3.892H155.7c.132-3.264-1.57-3.911-4.579-3.873-12.577.167-25.162-.109-37.735.172-4.185.092-5.476-.875-5.432-5.282.236-24.011.038-48.026.192-72.039.023-3.558-.816-5.409-4.581-5.129M124.14,17.844c.437-3.65-1.076-5.232-4.819-5.242-3.147-.008-4.447,1-4.367,4.269.075,2.988.236,5.25,4.183,5.008,2.833-.174,5.6.08,5-4.035" transform="translate(94.766 4.127)" fill="#afe7ee"/>
    <path id="Trazado_843205" data-name="Trazado 843205" d="M45.248,8.9c-10.842-.065-21.686-.044-32.524-.249-2.806-.054-3.612.894-3.553,3.589C9.319,18.9,9,25.571,9.3,32.217c.161,3.48-1.45,4.233-4.28,4.2-2.882.034-4.84-.174-4.652-4.273C.8,22.8.662,13.414.423,4.054.335.62,1.6-.016,4.692.005Q32.506.186,60.323.013a8.36,8.36,0,0,1,6.542,2.716Q82.559,18.661,98.5,34.355a8.96,8.96,0,0,1,2.848,7.058c-.09,29.628-.144,59.257.044,88.885.027,4.185-1.344,5.068-5.192,4.949-8.594-.266-17.212-.322-25.8.025-3.867.155-5.65-.94-5.568-4.8.149-2.666,1.2-3.97,4.229-3.863,6.491.23,13-.059,19.493.124,2.957.086,3.987-.8,3.963-3.853-.186-22.356-.218-44.714-.3-67.073a66.528,66.528,0,0,1,.283-7.4c.638-4.386-1.14-5.478-5.353-5.3-8.176.339-16.385-.1-24.565.188-3.859.136-4.863-1.191-4.692-4.842.276-5.891.075-11.8.075-17.708,0-12.487,0-12.487-12.711-11.836M66.8,15.879c0,5.74,0,10.967,0,16.2,0,1.553.613,2.538,2.306,2.54,5.322,0,10.645,0,16.6,0-6.594-6.537-12.367-12.261-18.9-18.737" transform="translate(0.328 0.004)" fill="#060706"/>
    <path id="Trazado_843206" data-name="Trazado 843206" d="M166.066,130.486c-.006-2.681.868-4.024,4.012-3.892,6.483.274,12.987.017,19.48.115,2.455.036,3.941-.37,3.915-3.361-.2-22.521-.287-45.044-.412-67.565a70.569,70.569,0,0,1,.4-7.41c.7-4.5-1.279-5.428-5.42-5.267-8.212.32-16.45-.061-24.668.169-3.43.1-4.771-.751-4.585-4.418.3-5.914.08-11.853.08-17.783,0-12.811,0-12.811-13.025-12.181-10.681-.059-21.364,0-32.04-.255-3.208-.077-3.763,1.153-3.685,3.966.178,6.29-.151,12.6.136,18.88.163,3.595-.835,5.351-4.593,4.92-3.317.232-4.545-.994-4.424-4.6.306-9.174.228-18.365.033-27.545C101.2,1.02,102.188-.022,105.457,0q28.125.19,56.252.01a7.751,7.751,0,0,1,6.014,2.58q15.938,16.119,32.066,32.053a7.611,7.611,0,0,1,2.384,6.039c-.061,30.034-.1,60.071.04,90.1.017,3.453-.7,4.6-4.359,4.48-8.984-.293-17.993-.343-26.97.017-3.963.159-4.983-1.417-4.819-4.8m19-95.847L167.654,17.217c0,4.051.052,8.973-.023,13.891-.033,2.128.123,3.67,2.948,3.578,5.054-.163,10.116-.046,14.492-.046" transform="translate(92.648 0.001)" fill="#070809"/>
    <path id="Trazado_843207" data-name="Trazado 843207" d="M105.687,23.163c3.765-.28,4.606,1.57,4.583,5.129-.157,24.013.042,48.028-.193,72.039-.044,4.407,1.245,5.374,5.432,5.282,12.571-.282,25.158-.006,37.737-.172,3-.038,4.71.609,4.577,3.873.144,3.352-.843,4.876-4.805,4.805-15.661-.28-31.329-.241-46.99-.023-3.8.052-4.8-1.023-4.775-4.78q.233-40.682-.023-81.368c-.025-3.629,1.31-4.731,4.457-4.784" transform="translate(92.647 21.174)" fill="#0a0a0a"/>
    <path id="Trazado_843208" data-name="Trazado 843208" d="M5.066,23.135c4.077-.107,4.215,2.469,4.2,5.636-.09,23.459.136,46.923-.188,70.376-.075,5.456,1.655,6.632,6.736,6.485,12.2-.356,24.415-.019,36.621-.184,3.024-.042,4.715.626,4.537,3.907.26,3.463-.942,4.811-4.794,4.752-15.852-.251-31.71-.186-47.564-.036-3.129.029-4.219-.649-4.2-4.02.138-27.5.193-55.009-.05-82.511-.034-4.045,1.942-4.219,4.7-4.4" transform="translate(0.335 21.17)" fill="#080a08"/>
    <path id="Trazado_843209" data-name="Trazado 843209" d="M77.536,128.838c.381-3.593-1.023-5.027-4.807-4.752-4.554.329-9.159-.1-13.726.132-3.369.169-3.813-1.412-3.369-4.164a12.478,12.478,0,0,1,12.116-10.287q29.182-.4,58.37-.023c5.851.067,10.08,3.386,11.983,9.034,1.159,3.432.7,5.577-4.037,5.485-14.492-.28-29,.019-43.491-.184-3.652-.052-5.322.979-4.953,4.685l-8.086.073" transform="translate(50.785 100.285)" fill="#8b9ea7"/>
    <path id="Trazado_843210" data-name="Trazado 843210" d="M149.063,76.958c-.2,3.687,1.094,5.234,5.217,5.091,9.93-.343,19.884-.167,29.826-.056,1.666.019,4.19-1.157,4.757,1.645.446,2.2-.7,4.1-2.474,5.47-1.915,1.48-4.158,1.722-6.51,1.718q-32.411-.04-64.824,0a10.378,10.378,0,0,1-5.548-1.1c-2.281-1.367-4-3.375-3.472-6.073.6-3.1,3.442-1.6,5.227-1.636,8.027-.172,16.072-.322,24.088.031,3.978.174,5.644-.988,5.207-4.937a16.452,16.452,0,0,0,8.507-.147" transform="translate(96.957 70.433)" fill="#8799a3"/>
    <path id="Trazado_843211" data-name="Trazado 843211" d="M47.954,77.106c-.368,3.624,1.1,4.886,4.863,4.792,10.124-.257,20.259-.147,30.387-.027,1.655.019,4.194-1.264,4.807,1.5.544,2.457-.9,4.413-2.867,5.838a9.745,9.745,0,0,1-6,1.49q-32.684-.035-65.366,0a9.348,9.348,0,0,1-6.414-1.967C5.637,87.26,4.586,85.284,5.237,83.15c.668-2.185,2.925-1.287,4.5-1.3,8.41-.08,16.827-.23,25.227.05,3.784.124,5.213-1.2,4.849-4.8a23.162,23.162,0,0,0,8.142.01" transform="translate(4.615 70.559)" fill="#8799a3"/>
    <path id="Trazado_843212" data-name="Trazado 843212" d="M74.672,40.491c1.08,4-1.209,4.2-4.353,4.3-3.409.109-4.541-.735-4.549-4.382-.01-3.723,1.308-4.386,4.616-4.359s5.282.6,4.286,4.438" transform="translate(60.193 32.996)" fill="#0a0a0a"/>
    <path id="Trazado_843213" data-name="Trazado 843213" d="M79.738,36.29c4.491-1.107,3.823,1.871,4.127,4.621.5,4.462-2.409,3.522-4.983,3.846-4.137.521-3.857-1.9-4.06-4.782-.3-4.258,2.147-4.12,4.916-3.685" transform="translate(68.455 32.996)" fill="#0a0a0a"/>
    <path id="Trazado_843214" data-name="Trazado 843214" d="M92.689,40.31c.9,3.647-.678,4.593-4.177,4.5-3.124-.086-4.826-.318-4.721-4.231.092-3.461.894-4.7,4.468-4.51,3.028.163,5.522.147,4.43,4.244" transform="translate(76.682 32.991)" fill="#0a0a0a"/>
    <path id="Trazado_843215" data-name="Trazado 843215" d="M70.763,107.85c-.609-5.981-.963-11.936,4.432-16.228,4.062-3.231,8.653-3.961,13.4-1.789,4.462,2.042,7.205,5.579,7.49,10.616.14,2.455-.092,4.934-.155,7.4-2.656-.393-5.548.971-7.983-1.071-.644-3.306,2.358-8.475-4.886-8.239-6.916.226-3.4,5.244-4.311,8.239-2.434,2.042-5.326.678-7.983,1.071" transform="translate(64.46 81.081)" fill="#d2dae8"/>
    <path id="Trazado_843216" data-name="Trazado 843216" d="M70.769,99.161c2.656-.393,5.548.971,7.983-1.073l9.2,0c2.434,2.042,5.326.678,7.983,1.071.9,12.516.9,12.516-11.436,12.516H82.2c-12.336,0-12.336,0-11.436-12.516" transform="translate(64.455 89.771)" fill="#c6d0e2"/>
    <path id="Trazado_843217" data-name="Trazado 843217" d="M41.817,82.722c-9.176,0-18.353-.126-27.523.067-3.283.071-4.275-.986-4.212-4.231.057-3.02.617-4.972,4.068-4.309,5.769,1.109,6.494-1.934,6.263-6.692-.327-6.675.077-13.382-.149-20.062-.111-3.267,1.343-3.823,4.1-3.712,2.591.105,4.932-.245,4.815,3.677-.218,7.446.105,14.912-.132,22.358-.115,3.585,1.166,4.489,4.606,4.524,3.551.036,4.129-1.467,3.961-4.453-.2-3.428.136-6.889-.1-10.313-.216-3.166.726-4.432,4.108-4.332,3.12.09,5.152.375,4.824,4.294-.3,3.606.14,7.272-.119,10.886-.264,3.723,1.816,3.783,4.606,3.876,2.993.1,3.976-.85,3.934-3.886-.153-11.083,0-22.17-.1-33.256-.027-2.978-.025-5.035,4.074-4.972,3.727.057,4.972,1.027,4.888,4.855-.239,10.7.079,21.408-.169,32.107-.092,3.947,1,5.7,5.079,5.091,3.388-.508,5.11.333,5.089,4.476-.021,4.118-2.013,4.079-4.96,4.045-8.984-.105-17.969-.038-26.953-.038" transform="translate(9.225 29.457)" fill="#080a08"/>
    <path id="Trazado_843218" data-name="Trazado 843218" d="M23.818,4.755c12.711-.649,12.711-.649,12.711,11.836,0,5.9.2,11.821-.075,17.71-.17,3.648.833,4.978,4.692,4.84,8.18-.291,16.387.153,24.564-.186,4.213-.176,5.991.915,5.353,5.3a66.085,66.085,0,0,0-.283,7.4c-13.922-.006-27.845-.134-41.763.059-3.984.054-5.3-1.178-5.242-5.207.2-13.916.056-27.838.042-41.759" transform="translate(21.758 4.151)" fill="#7fd082"/>
    <path id="Trazado_843219" data-name="Trazado 843219" d="M160.12,31.143c14.632,11.646,19.545,24.67,14.78,39.189-4.886,14.889-19.087,24.055-35.066,22.632-15.115-1.346-27.311-13.724-29.284-29.716-1.791-14.525,7.734-29.4,22.048-34.391,1.616-.565,3.279-1,4.92-1.5a41.362,41.362,0,0,1,22.6,3.786M132.594,64.389c-4.007,0-6.881.124-9.739-.036-2.79-.157-3.141,1-2.566,3.426,3.191,13.477,22.885,21.414,34.556,13.866,1.061-.688,2.944-1.367,1.12-2.808-7.5-5.922-11.533-17.815-23.371-14.448m30.212,9.85c9.695-13.518,3.637-32.231-10.942-37.067-2.819-.935-4.231-.779-4.089,2.748.209,5.137.065,10.289.048,15.433-.006,1.536.029,2.963,1.228,4.219,4.587,4.8,9.093,9.681,13.755,14.667M139.071,46.126A48.566,48.566,0,0,1,139.1,41c.5-4.665-1.385-5.14-5.192-3.378A24.943,24.943,0,0,0,123.143,46.6c-1.657,2.528-4.164,5.636-2.971,8.193,1.247,2.674,5.15.6,7.835,1.088a6.416,6.416,0,0,0,1.136.01c9.928,0,9.928,0,9.928-9.769" transform="translate(100.979 24.808)" fill="#060706"/>
    <path id="Trazado_843220" data-name="Trazado 843220" d="M147.131,51.8a41.337,41.337,0,0,0-22.6-3.784q.057-13.031.113-26.06c2.543-.414,5.755.887,5.878-3.974s-2.863-4.472-5.853-4.736l-.144-8.5c13.025-.632,13.025-.632,13.025,12.181,0,5.929.22,11.869-.08,17.783-.186,3.668,1.155,4.514,4.585,4.418,8.218-.23,16.455.151,24.668-.169,4.141-.161,6.119.764,5.42,5.267a70.548,70.548,0,0,0-.4,7.41l-24.61.167" transform="translate(113.968 4.15)" fill="#7fdbe7"/>
    <path id="Trazado_843221" data-name="Trazado 843221" d="M130.183,9.083c2.99.266,5.975-.119,5.853,4.736s-3.332,3.56-5.876,3.974c-2.48-.052-4.966-.224-7.439-.126-2.785.111-4.208-.709-4.221-3.84-.013-3.147.975-4.575,4.273-4.411a73.369,73.369,0,0,0,7.41-.333" transform="translate(108.452 8.313)" fill="#f4f4f4"/>
    <path id="Trazado_843222" data-name="Trazado 843222" d="M118.69,13.977c.6,4.116-2.17,3.861-5,4.035-3.947.241-4.108-2.021-4.183-5.008-.08-3.265,1.22-4.277,4.367-4.269,3.742.01,5.255,1.592,4.819,5.242" transform="translate(100.217 7.994)" fill="#f4f4f4"/>
    <path id="Trazado_843223" data-name="Trazado 843223" d="M35.051,8.293c6.533,6.475,12.305,12.2,18.9,18.737-5.951,0-11.273,0-16.6,0-1.693,0-2.306-.986-2.306-2.54,0-5.229,0-10.455,0-16.2" transform="translate(32.077 7.59)" fill="#a4e3a5"/>
    <path id="Trazado_843224" data-name="Trazado 843224" d="M153.342,26.413c-4.376,0-9.438-.117-14.492.046-2.825.092-2.98-1.45-2.947-3.578.075-4.918.023-9.84.023-13.891l17.417,17.423" transform="translate(124.377 8.228)" fill="#afe7ee"/>
    <path id="Trazado_843225" data-name="Trazado 843225" d="M84.022,102.03q-4.6,0-9.2,0c.912-3-2.6-8.011,4.311-8.239,7.243-.236,4.242,4.934,4.886,8.239" transform="translate(68.383 85.831)" fill="#f4f4f4"/>
    <path id="Trazado_843226" data-name="Trazado 843226" d="M127.949,46.855c11.838-3.367,15.869,8.528,23.371,14.45,1.823,1.438-.059,2.118-1.12,2.806-11.669,7.55-31.365-.389-34.556-13.866-.575-2.425-.224-3.583,2.566-3.426,2.858.161,5.734.036,9.739.036" transform="translate(105.624 42.342)" fill="#a4e3a5"/>
    <path id="Trazado_843227" data-name="Trazado 843227" d="M144.92,69.662C140.259,64.677,135.752,59.8,131.165,55c-1.2-1.256-1.233-2.683-1.228-4.219.017-5.144.159-10.3-.048-15.433-.142-3.528,1.27-3.683,4.087-2.748,14.579,4.836,20.636,23.551,10.944,37.067" transform="translate(118.868 29.385)" fill="#fc6f6f"/>
    <path id="Trazado_843228" data-name="Trazado 843228" d="M134.519,41.55c0,9.77,0,9.77-9.928,9.77a6.417,6.417,0,0,1-1.136-.01c-2.685-.49-6.588,1.586-7.835-1.088-1.193-2.557,1.314-5.665,2.971-8.193a24.943,24.943,0,0,1,10.765-8.979c3.807-1.762,5.692-1.287,5.192,3.378a48.57,48.57,0,0,0-.029,5.121" transform="translate(105.532 29.384)" fill="#f3d474"/>
  </g>
</svg>
