<svg id="Grupo_1083439" data-name="Grupo 1083439" xmlns="http://www.w3.org/2000/svg" xmlns:xlink="http://www.w3.org/1999/xlink" width="109.152" height="109.089" viewBox="0 0 109.152 109.089">
  <defs>
    <clipPath id="clip-path">
      <rect id="Rectángulo_381384" data-name="Rectángulo 381384" width="109.152" height="109.089" fill="#0a5e6b"/>
    </clipPath>
  </defs>
  <g id="Grupo_1083438" data-name="Grupo 1083438" clip-path="url(#clip-path)">
    <path id="Trazado_843301" data-name="Trazado 843301" d="M.026,40.142c0-8.99.028-17.98-.026-26.97A4.905,4.905,0,0,1,1.588,9.3C4.279,6.717,6.9,4.065,9.5,1.4a4.293,4.293,0,0,1,3.3-1.386c10.89.03,21.78.005,32.671.026,2.51,0,3.094.606,3.1,3.136.022,7.382.057,14.764-.025,22.145-.02,1.771.431,2.358,2.233,1.934a17.536,17.536,0,0,1,7.83.024c1.657.365,1.987-.25,1.975-1.769-.058-7.235-.03-14.471-.023-21.707,0-3.371.4-3.77,3.8-3.772C74.816.024,85.268.055,95.719,0a5.348,5.348,0,0,1,4.275,1.716c2.46,2.6,5.015,5.115,7.591,7.6a4.718,4.718,0,0,1,1.568,3.664q-.058,27.189-.03,54.378c0,2.747-.4,3.132-3.232,3.135-10.524.011-21.049.028-31.574-.018a5.971,5.971,0,0,0-4.212,1.4,22.216,22.216,0,0,1-7.667,4.148,1.967,1.967,0,0,0-1.574,2.255c.15,2.324-.568,4.777,1.657,6.691.927.8.868,2.28.877,3.533.038,5.262.1,10.524.086,15.786-.006,3.029-1.553,4.619-4.545,4.735-1.9.074-3.8.08-5.7.031-2.772-.072-4.4-1.616-4.482-4.338-.168-5.476-.256-10.955-.381-16.432a5.1,5.1,0,0,1,1.711-4.321c1.526-1.275.65-3.006.9-4.524.38-2.286-1.173-2.569-2.83-2.988a22.016,22.016,0,0,1-8.781-4.33,7.179,7.179,0,0,0-5.007-1.658c-10.305.074-20.611.039-30.916.032-3.08,0-3.422-.34-3.425-3.384q-.013-13.485,0-26.97m75.666-2.113c.947,2.032,1.864,3.694,2.5,5.458A2.341,2.341,0,0,0,80.8,45.231c5.043-.051,10.087-.022,15.131-.016a22.888,22.888,0,0,1,2.627.079,1.92,1.92,0,0,1,1.894,1.8,1.948,1.948,0,0,1-1.8,2.116,9.427,9.427,0,0,1-1.962.131q-6.359.016-12.719.006c-5.058,0-4.059-.217-4.306,4.2-.118,2.112.545,2.839,2.68,2.788,4.968-.119,9.94-.059,14.91-.011,1.49.014,3.19.162,3.138,2.193-.05,1.94-1.681,1.883-3.1,1.883-4.532,0-9.084.269-13.589-.081-3.762-.293-6.35.58-7.389,4.444a1.294,1.294,0,0,1-.212.382c-.779,1.112-.436,1.515.86,1.511q13.267-.03,26.534,0c1.311,0,1.811-.488,1.809-1.809q-.037-24.56,0-49.12c0-1.471-.621-1.932-1.981-1.88-1.533.057-3.07.032-4.6,0-2.648-.051-3.32-.735-3.384-3.434a35.2,35.2,0,0,1,.009-3.726C95.5,4.812,94.8,4.1,92.855,4.122q-12.827.118-25.656,0c-1.886-.015-2.591.6-2.564,2.524.086,5.993.161,11.992-.026,17.98-.09,2.888.248,5.165,3.366,6.216a6.281,6.281,0,0,1,2.137,1.509,6.067,6.067,0,0,0,4.59,1.592c7.09-.075,14.18-.034,21.27-.025a16.825,16.825,0,0,1,2.4.121c1.2.175,2.125.768,2.045,2.126s-1.048,1.82-2.279,1.846c-.877.018-1.754.015-2.631.016H75.692m-42.322.314a3.454,3.454,0,0,0-2.229-.3c-6.14-.02-12.281.019-18.42-.033-1.566-.013-3.884.622-3.922-1.885-.039-2.561,2.313-2.174,3.987-2.186q10.854-.074,21.71,0a6.313,6.313,0,0,0,4.423-1.458,30.581,30.581,0,0,1,4.2-2.76,2.263,2.263,0,0,0,1.352-2.063q-.007-10.855.009-21.709c0-1.325-.662-1.795-1.911-1.793q-13.377.021-26.754-.012c-1.564-.006-2.047.718-2,2.151.05,1.606.025,3.217-.023,4.823a2.5,2.5,0,0,1-2.748,2.722c-1.608.018-3.223.107-4.823,0-1.808-.125-2.4.552-2.391,2.378q.087,24.013-.007,48.025c-.009,1.99.679,2.465,2.542,2.444,7.674-.086,15.35-.036,23.026-.036,4.285,0,4.173.049,2.459-3.893a3.454,3.454,0,0,0-3.811-2.4c-5.259.137-10.525.048-15.788.044a15.031,15.031,0,0,1-1.751-.057,1.909,1.909,0,0,1-.281-3.77,10.647,10.647,0,0,1,2.383-.263c4.094-.025,8.187-.013,12.281-.013,5.5,0,4.427.255,4.583-4.549.058-1.8-.526-2.461-2.36-2.427-4.9.091-9.795.038-14.692.02a9.635,9.635,0,0,1-2.168-.206,1.855,1.855,0,0,1-1.563-1.868,1.91,1.91,0,0,1,1.742-1.944,10.55,10.55,0,0,1,1.966-.1c5.263-.007,10.526,0,15.789-.011.926,0,2.016.214,2.439-.963a47.509,47.509,0,0,1,2.753-5.9m.181,13.731A21.026,21.026,0,1,0,54.726,30.993,21.066,21.066,0,0,0,33.551,52.075M59.375,96.14h-.088c0-1.457.035-2.916-.006-4.373-.145-5.163,1.1-4.641-5.1-4.633-1.216,0-1.706.526-1.672,1.719.114,4-.16,8.015.222,12.015.405,4.24.4,4.176,4.529,4.072,1.631-.041,2.188-.677,2.131-2.243-.08-2.183-.02-4.372-.02-6.558" transform="translate(0 0)" fill="#0a5e6b"/>
    <path id="Trazado_843302" data-name="Trazado 843302" d="M173.75,52.078h12.476c1.374,0,2.837.079,2.935,1.848.1,1.857-1.325,2.26-2.824,2.264q-12.7.027-25.39-.014c-1.354-.005-2.813-.261-2.838-2.025-.027-1.937,1.486-2.066,2.946-2.069q6.348-.013,12.7,0" transform="translate(-88.761 -29.236)" fill="#0a5e6b"/>
    <path id="Trazado_843303" data-name="Trazado 843303" d="M169.2,30.461q-4.276,0-8.551,0c-1.371,0-2.55-.331-2.571-1.991-.02-1.529,1.136-2.032,2.361-2.044q8.986-.086,17.975.007c1.25.013,2.355.617,2.258,2.128-.1,1.48-1.191,1.886-2.483,1.891-3,.011-5.993,0-8.989.007" transform="translate(-88.741 -14.813)" fill="#0a5e6b"/>
    <path id="Trazado_843304" data-name="Trazado 843304" d="M35.475,52.077c4.161,0,8.322-.006,12.483,0,1.443,0,3,.073,3,2.013,0,1.909-1.579,2.081-3,2.086q-12.592.048-25.185.008c-1.477,0-2.964-.343-2.9-2.2.061-1.73,1.49-1.918,2.9-1.915q6.352.011,12.7,0" transform="translate(-11.157 -29.234)" fill="#0a5e6b"/>
    <path id="Trazado_843305" data-name="Trazado 843305" d="M50.76,30.42H42.209c-1.393,0-2.826-.148-2.9-1.908-.08-1.918,1.465-2.169,2.9-2.179q8.44-.059,16.882.009c1.354.012,2.786.3,2.784,2.088,0,1.812-1.376,1.992-2.786,1.99q-4.166,0-8.331,0" transform="translate(-22.066 -14.767)" fill="#0a5e6b"/>
    <path id="Trazado_843306" data-name="Trazado 843306" d="M100.813,76.977A18.368,18.368,0,1,1,82.225,95.192a18.449,18.449,0,0,1,18.588-18.215m-.016,32.645A14.109,14.109,0,0,0,115.1,95.358a14.368,14.368,0,1,0-28.732.125A14.1,14.1,0,0,0,100.8,109.622" transform="translate(-46.16 -43.214)" fill="#0a5e6b"/>
  </g>
</svg>
