<svg xmlns="http://www.w3.org/2000/svg" xmlns:xlink="http://www.w3.org/1999/xlink" width="295" height="225" viewBox="0 0 295 225">
  <defs>
    <clipPath id="clip-path">
      <rect id="Rect치ngulo_381361" data-name="Rect치ngulo 381361" width="171" height="165.555" fill="none"/>
    </clipPath>
  </defs>
  <g id="Grupo_1083444" data-name="Grupo 1083444" transform="translate(-390 -1546)">
    <rect id="Rect치ngulo_381360" data-name="Rect치ngulo 381360" width="295" height="225" transform="translate(390 1546)" fill="#cdf5e2"/>
    <g id="Grupo_1083393" data-name="Grupo 1083393" transform="translate(452 1580.658)">
      <g id="Grupo_1083392" data-name="Grupo 1083392" clip-path="url(#clip-path)">
        <path id="Trazado_843235" data-name="Trazado 843235" d="M116.89,21.756c3.9-.146,4.77.429,5.754,5.53.433,2.244,1.347,2.517,3.258,2.507,12.462-.066,24.925-.04,37.388-.031,5.865,0,7.706,1.884,7.707,7.841q0,25.2,0,50.4c0,5.681-1.9,7.577-7.625,7.583q-20.2.022-40.393,0c-5.71-.007-7.5-1.857-7.517-7.654-.007-3.339.035-6.677-.03-10.014-.015-.749.571-2.064-.833-2.08-1.077-.013-2.481-.73-3.25.806a30.816,30.816,0,0,1-4.467,6.612c-.686.778-.476,1.107.158,1.837,4.1,4.708,4.177,7.251.406,12.644,6.38,2.049,12.667,4.079,18.96,6.088,10.219,3.261,13.744,8.083,13.745,18.848q0,19.862,0,39.723c0,4.966-1.275,6.179-6.4,6.179q-38.223,0-76.446,0c-5.349,0-6.5-1.131-6.513-6.356,0-1.307,0-2.613,0-4.527-3.264,3.154-6.7,4.658-10.781,4.166a11.488,11.488,0,0,1-9.947-13.692,56.2,56.2,0,0,0,.791-11.238c.037-5.23-.005-10.459.013-15.689.031-8.811,3.931-14.161,12.27-16.868,8.018-2.6,16.016-5.271,24.072-7.754,1.914-.59,2.116-1.218,1.31-2.954-2.6-5.611-4.916-11.341-8.46-16.5-1.111-1.616-2.339-1.488-3.653-1.332-1.54.182-.793,1.6-.813,2.435-.088,3.67.009,7.343-.053,11.015-.068,4.036-2.114,6.249-6.189,6.273q-21.531.123-43.063,0C2.108,95.536.027,93.24.021,88.993q-.043-26.2,0-52.408c.006-4.72,2.16-6.807,7.044-6.817,12.463-.029,24.925-.049,37.388.026,2.239.013,3.642-.087,3.843-2.988a9.506,9.506,0,0,1,4.318-7.223C60.3,14.363,68.361,10.15,77.9,9.324c7.374-.639,14.424.144,21.088,3.417a15.926,15.926,0,0,0,7.647,2.026c3.174-.13,5.331.883,6.155,4.1a11.322,11.322,0,0,1-5.913,1.083,30.373,30.373,0,0,1-11.371-3.211,12.852,12.852,0,0,0-6.669-1.716,33.5,33.5,0,0,0-12.556-.3c-6.886.932-12.807,3.9-18.574,7.644-2.929,1.9-4.747,4.088-4.823,7.387-.174,7.548-.045,15.1-.13,22.655-.02,1.772.842,1.946,2.267,1.92,1.448-.027,2.605.019,2.54-2.015-.114-3.55-.062-7.107-.013-10.66.023-1.719-.517-3.673,1.4-4.821s3.1.511,4.406,1.381c1.987,1.327,2.957.891,3.374-1.457.825-4.641,2.482-5.319,6.538-2.95,5.017,2.93,10.193,5.421,16.212,5.4,2.649-.009,4.614-.644,5.661-3.537,1.061-2.933,3.421-3.361,5.841-1.37,1.708,1.406,3.206,3.072,5.23,4.071a5.839,5.839,0,0,0,3.82,1.817c2.9.377,3.619,2.037,3.488,4.618-.112,2.211.055,4.436-.046,6.648-.089,1.955.184,2.675,2.638,2.724,2.9.059,2.06-1.572,2.08-2.877.072-4.654.05-9.31.045-13.965,0-3.645.349-7.354-1.161-10.811a6.3,6.3,0,0,1-.186-4.763m12.037,141.563c.882.055,1.776.036,2.644.177,2.712.442,3.718-.507,3.5-3.376-.271-3.641-.066-7.317-.066-10.979,0-6.086,0-6.086-6.15-5.416-2.2-.07-4.406-.079-6.6-.23-1.607-.111-2.111.517-2.065,2.094.1,3.31.029,6.626.029,9.94,0,8.464,0,8.464,8.7,7.79m-66-59.42c-4.71.2-8.9,2.3-13.279,3.689C36.481,111.761,36,112.512,36,126.394v10.721l.765.1q13.046-16.678,26.085-33.361l.216-.446-.259.059.122.428m25.868,7.47c3.812.007,5.075-1.1,5.192-4.727.076-2.331-.029-4.667.032-7,.1-3.683,1.606-5.119,5.363-5.2.666-.015,1.333,0,2-.005,2.037,0,3.572-.757,3.594-3.005s-1.441-3.045-3.524-3.035c-3.889.019-7.8-.243-11.661.058-6.436.5-12.25-.061-15.629-6.61a.969.969,0,0,0-.207-.26c-.962-.9-1.989-1.449-3.268-.585a2.359,2.359,0,0,0-.954,3.184c.95,2.107,1.987,4.175,2.987,6.259a9.262,9.262,0,0,0,.694,1.854c1.809,2.835,1.554,5.275-.9,7.712a61.245,61.245,0,0,0-4.582,5.726q-15.492,19.652-30.976,39.311c-2.807,3.572-2.909,6.91-.431,9.64,2.924,3.221,7.664,2.906,10.68-.881,4.851-6.088,9.6-12.26,14.361-18.417,1.155-1.493,2.321-2.781,4.444-1.8,1.325,1.53,1.107,2.992-.112,4.488a57.9,57.9,0,0,1-4.358,5.477c-4.865,4.67-6.422,10.246-5.766,16.856.245,2.467.786,3.13,3.24,3.116q26.369-.154,52.738.016c2.9.023,3.463-.915,3.419-3.584-.155-9.454-.059-18.913-.057-28.37,0-1.854.538-3.521,2.674-3.478,1.9.039,2.4,1.542,2.466,3.315.086,2.292-1.1,5.495.533,6.637,1.663,1.163,4.686.388,7.114.448a8.5,8.5,0,0,0,1-.088,20.659,20.659,0,0,1,2.324.116c2.956.474,4.052-.553,3.848-3.7-.294-4.536-.063-9.1-.079-13.66-.023-6.675-2.464-10.026-8.745-12.056L104.1,101.955c-5.375-1.738-5.374-1.738-5.038,3.891-.549,8.084-3.349,10.7-11.452,10.709a15.438,15.438,0,0,1-2.32-.019c-2.011-.307-3.258.607-4.394,2.187-2.064,2.871-4.336,5.592-6.475,8.41-1.094,1.441-2.288,2.422-4.2,1.546-1.348-1.487-1.189-2.942.026-4.437a41.735,41.735,0,0,0,3.836-4.959c3.258-5.546,7.521-9.039,14.4-7.824.1.017.209-.059.315-.091m10.393-71.7c-3.433,4.762-8.257,5.224-13.458,4.4a36.072,36.072,0,0,1-11.893-4.157c-1.483-.823-2.327-1.1-3.105.915A4.943,4.943,0,0,1,64.83,44.09c-2.164-.478-2.12.418-2.112,1.943q.054,11.35.009,22.7a12.584,12.584,0,0,0,1.356,5.443c1.048,2.239,1.7,4.376,5.059,2.1,2.395-1.625,5.417-.891,7.715,1.151a14.441,14.441,0,0,1,2.623,3.01,5.766,5.766,0,0,0,5.806,2.892c4.1-.241,8.231-.049,12.348-.075.973-.006,2.041.275,2.852-.554,3.766-3.846,7.538-7.814,7.722-13.564.236-7.337.047-14.686.084-22.03.006-1.2-.1-2.134-1.453-2.591-2.895-.974-5.154-3.014-7.647-4.843m66.769,28.024q0-10.177.007-20.354c0-1.257.173-2.335-1.775-2.324-13.014.074-26.029.037-39.043.04-.873,0-1.866-.161-1.8,1.236.192,4.319-.849,8.793.478,12.928a12.513,12.513,0,0,1-2.382,12.724,4.3,4.3,0,0,0-1.081,3c.044,4.338.076,8.677-.011,13.013-.035,1.763.355,2.555,2.372,2.605,2.14.053,2.321-.911,2.21-2.571-.1-1.55-.023-3.113-.022-4.67,0-6.467.791-7.457,7.219-9.058,4.906-1.222,4.987-1.423,2.318-5.732-4.215-6.8-1.056-16.364,6.04-18.143,4.28-1.073,8.057.019,10.747,3.5,3.214,4.165,3.249,8.94,1.216,13.569-2.434,5.544-2.6,5.472,3.583,7.156,4.027,1.1,5.443,2.924,5.5,7.164.029,2.113.063,4.229-.014,6.339-.055,1.5.021,2.46,2.034,2.438,1.942-.022,2.462-.664,2.438-2.511-.084-6.784-.033-13.569-.033-20.355M5.045,67.5c0,6.785.022,13.571-.017,20.355-.009,1.6.045,2.685,2.228,2.712,2.144.027,2.352-.909,2.231-2.587-.1-1.439-.022-2.891-.022-4.337,0-6.723.825-7.784,7.277-9.383,4.875-1.208,4.98-1.467,2.32-5.722-4.215-6.741-1.06-16.369,6-18.147,4.273-1.077,8.038.016,10.761,3.482,3.278,4.174,3.162,9,1.236,13.585-2.379,5.659-2.613,5.561,3.272,7.079,4.428,1.143,5.744,2.87,5.766,7.6.009,2,.041,4.005-.011,6.006-.038,1.441-.067,2.531,2.015,2.415,1.764-.1,2.628-.4,2.567-2.409-.128-4.223-.094-8.453-.009-12.679a5.457,5.457,0,0,0-1.385-3.906c-2.307-2.748-3.8-6.068-2.716-9.557,1.506-4.826.873-9.675,1.143-14.518.1-1.8-.317-2.5-2.316-2.481q-19.021.138-38.042,0c-1.983-.014-2.361.668-2.335,2.472.1,6.672.039,13.347.039,20.021M143.27,90.466h5.338c7.929,0,7.942,0,7.73-7.832-.031-1.123.476-2.555-1.342-2.935-1.577-.329-2.96-1.114-4.644.284-5.076,4.212-9.082,4.191-14.3-.019-1.659-1.34-3.059-.719-4.652-.285-1.741.474-1.236,1.878-1.275,3.006-.065,1.888.046,3.782-.031,5.669-.065,1.592.609,2.154,2.163,2.128,3.668-.064,7.339-.021,11.008-.016m-115.88,0h6.651c6.882,0,6.908,0,6.833-7.039-.016-1.526.655-3.352-1.815-3.968-2.19-.546-3.895-.74-5.56,1.358-4.19,5.276-7.093,5.3-11.355.026-1.816-2.247-3.639-1.808-5.88-1.242-2.378.6-1.469,2.38-1.583,3.753-.128,1.541.063,3.108-.052,4.651-.14,1.864.553,2.559,2.454,2.494,3.432-.118,6.871-.033,10.307-.032m-.655-55.58c-6.337,0-12.675.054-19.011-.033-1.9-.026-2.853.376-2.819,2.547.03,1.941.488,2.757,2.618,2.743q18.843-.126,37.689,0c2.148.015,2.552-.816,2.607-2.739.061-2.154-.779-2.6-2.74-2.56-6.113.109-12.229.04-18.344.04m118.207,5.206c6,0,12.006-.031,18.009.019,1.817.015,3.15.049,3.166-2.519.017-2.665-1.3-2.747-3.308-2.738q-18.342.083-36.686-.011c-2.044-.013-2.925.366-2.946,2.694-.022,2.512,1.216,2.6,3.089,2.578,6.225-.062,12.451-.023,18.676-.023M22.506,61.519c-.027,4.191,1.88,6.725,5.143,6.829s5.5-2.531,5.55-6.509c.049-4.128-1.919-6.676-5.234-6.776-3.4-.1-5.431,2.3-5.459,6.456m125.976.253c.021-4.249-1.846-6.662-5.193-6.712s-5.469,2.483-5.5,6.531c-.027,4.019,2.074,6.69,5.315,6.755,3.3.066,5.353-2.45,5.374-6.573M57.6,65.473c0-1-.013-1.992,0-2.988.023-1.441.265-3.022-1.813-3.25a3.593,3.593,0,0,0-4.134,2.585,6.7,6.7,0,0,0,1.658,6.763c.96,1.074,2.167,2.347,3.641,1.8,1.373-.505.412-2.145.629-3.258a8.77,8.77,0,0,0,.017-1.656m55.813-.323c0,1.327.037,2.655-.011,3.98-.043,1.2.44,1.55,1.6,1.3,3.488-.743,5.9-6.539,3.9-9.5a3.583,3.583,0,0,0-4.014-1.619c-1.905.409-1.426,1.924-1.471,3.181-.031.883-.006,1.769-.007,2.654m-87.952,9.91a3.329,3.329,0,0,0,2.258,4.156c1.1.262,2.6-1.55,2.549-2.9-.036-.944.711-3.174-1.79-3.063-1.52.067-3.35-.442-3.017,1.811m117.907,2.864c.724-.621,2.7.329,2.43-1.613-.19-1.345-.006-3.2-2.748-3.133-2.624.063-2.217,1.957-2.418,3.072-.33,1.828,1.538,1.256,2.736,1.674" transform="translate(0 -3.026)" fill="#080708"/>
        <path id="Trazado_843236" data-name="Trazado 843236" d="M132.94,17.934a12.851,12.851,0,0,1,6.669,1.716,30.394,30.394,0,0,0,11.371,3.212,11.326,11.326,0,0,0,5.914-1.083,5.109,5.109,0,0,1,4.1,2.891,6.31,6.31,0,0,0,.186,4.764c1.51,3.457,1.157,7.166,1.161,10.811.005,4.655.027,9.311-.045,13.965-.02,1.3.819,2.936-2.08,2.877-2.453-.05-2.726-.77-2.637-2.725.1-2.212-.066-4.436.045-6.648.13-2.581-.592-4.241-3.488-4.618a5.847,5.847,0,0,1-3.82-1.817c-.316-7.043-3.7-12.546-8.6-17.328-2.585-2.523-6.261-3.415-8.775-6.018" transform="translate(-44.104 -5.94)" fill="#544d55"/>
        <path id="Trazado_843237" data-name="Trazado 843237" d="M213.048,13.9c1.009.163,1.768.219,2.487.418a2.364,2.364,0,0,1,1.942,2.389,2.328,2.328,0,0,1-2.227,2.473,43.641,43.641,0,0,1-7.65-.047c-2.3-.278-2.888-2.391-1.413-4.593,1.6-2.395,3.352-4.692,5-7.057.438-.629.94-1.493.16-2.072-.843-.625-1.344.12-1.747.859-.8,1.471-1.959,2.186-3.539,1.187-1.693-1.07-1.42-2.567-.649-4.09a5.95,5.95,0,0,1,7.6-2.922,5.754,5.754,0,0,1,3.463,7.578,18.4,18.4,0,0,1-1.516,2.943c-.551.941-1.189,1.83-1.915,2.934" transform="translate(-67.946 0)" fill="#0a0a0a"/>
        <path id="Trazado_843238" data-name="Trazado 843238" d="M43.652,9.956c0,2.1.041,4.2-.012,6.3-.045,1.754-.808,3.141-2.74,3.013-1.675-.112-2.392-1.366-2.375-3.036q.035-3.318,0-6.636c-.021-1.954.641-4.042-2.1-5.1-1.176-.453-1.131-2.172-.234-3.19C37.641-.337,39.652.2,41.479.424c1.608.2,2.129,1.455,2.16,2.9.047,2.211.012,4.424.013,6.636" transform="translate(-11.785 -0.053)" fill="#101010"/>
        <path id="Trazado_843239" data-name="Trazado 843239" d="M97.84,176.7c1.914.875,3.108-.1,4.2-1.546,2.14-2.819,4.411-5.539,6.475-8.41,1.135-1.58,2.383-2.495,4.394-2.187a15.436,15.436,0,0,0,2.32.018c8.1-.006,10.9-2.625,11.452-10.709,7.572,2.427,15.159,4.806,22.709,7.3,4.689,1.548,7.135,5.061,7.15,9.988.015,5.095-.009,10.189-.017,15.284a8.5,8.5,0,0,1-1,.087c-2.428-.061-5.451.716-7.114-.448-1.632-1.141-.446-4.344-.533-6.636-.068-1.773-.562-3.276-2.466-3.315-2.136-.043-2.674,1.623-2.674,3.478,0,9.457-.1,18.915.057,28.37.043,2.67-.521,3.608-3.419,3.584q-26.367-.214-52.738-.016c-2.454.014-3-.65-3.24-3.117-.656-6.609.9-12.186,5.766-16.855a57.913,57.913,0,0,0,4.358-5.478c1.219-1.5,1.437-2.957.111-4.488l4.2-4.9" transform="translate(-27.622 -51.046)" fill="#8694dd"/>
        <path id="Trazado_843240" data-name="Trazado 843240" d="M130.328,54.649c2.493,1.828,4.753,3.868,7.648,4.843,1.357.456,1.458,1.393,1.452,2.591-.037,7.344.152,14.694-.084,22.031-.184,5.75-3.957,9.718-7.722,13.564-.811.829-1.879.548-2.853.554-4.117.026-8.245-.166-12.348.074a5.763,5.763,0,0,1-5.806-2.892,14.5,14.5,0,0,0-2.623-3.01c-2.3-2.042-5.321-2.775-7.715-1.15-3.357,2.278-4.011.141-5.059-2.1a12.585,12.585,0,0,1-1.357-5.444q.04-11.35-.009-22.7c-.007-1.525-.051-2.422,2.113-1.944a4.942,4.942,0,0,0,5.905-3.262c.778-2.019,1.622-1.738,3.106-.915a36.094,36.094,0,0,0,11.893,4.157c5.2.825,10.026.364,13.458-4.4M115.893,86.043a9.523,9.523,0,0,0-5.266,1.373,2.483,2.483,0,0,0-1.181,3.409,2.213,2.213,0,0,0,3.1,1.156,7.834,7.834,0,0,1,8.193.671,2.325,2.325,0,0,0,3.5-.643c1-1.512.339-2.762-1.014-3.69a12.148,12.148,0,0,0-7.335-2.275M128.548,62.1a11.407,11.407,0,0,0-4.644.946A2.3,2.3,0,0,0,122.5,66.02a2.188,2.188,0,0,0,2.764,1.732,11.7,11.7,0,0,1,6.172.017,2.141,2.141,0,0,0,2.587-1.546,2.317,2.317,0,0,0-1.167-3.081,10.918,10.918,0,0,0-4.307-1.041m-23.527,5.335a7.139,7.139,0,0,0,4.862-1.85,2.407,2.407,0,0,0,.646-3.272,2.136,2.136,0,0,0-3.148-.889A4.1,4.1,0,0,1,102.5,61.4a2.132,2.132,0,0,0-3.119.986,2.452,2.452,0,0,0,.756,3.262,7.2,7.2,0,0,0,4.882,1.794m2.405,6.889c.067-1.824.076-3.809-2.382-3.9-2.187-.078-2.572,1.586-2.541,3.434.033,1.926-.1,4.092,2.569,4.08,2.18-.01,2.448-1.822,2.354-3.619m23.316-.372c.153-1.749-.137-3.577-2.562-3.516-2.235.056-2.354,1.862-2.351,3.624,0,1.844.007,3.858,2.429,3.886,2.4.029,2.587-1.921,2.484-3.993" transform="translate(-31.136 -18.004)" fill="#faa48c"/>
        <path id="Trazado_843241" data-name="Trazado 843241" d="M87.475,169.039l-4.2,4.9c-2.122-.98-3.288.307-4.443,1.8-4.763,6.157-9.51,12.328-14.361,18.417-3.016,3.787-7.756,4.1-10.68.881-2.478-2.73-2.376-6.068.431-9.64Q69.683,165.725,85.2,146.09a61.156,61.156,0,0,1,4.582-5.726c2.451-2.436,2.706-4.876.9-7.712a9.279,9.279,0,0,1-.693-1.854,21.632,21.632,0,0,0,8.834.138c3.5-.752,7.506,1.157,7.664,3.65.361,5.7,1.036,11.464-.424,17.141-.106.032-.219.108-.315.09-6.882-1.215-11.146,2.278-14.4,7.824A41.843,41.843,0,0,1,87.5,164.6c-1.216,1.494-1.374,2.95-.026,4.437" transform="translate(-17.257 -43.384)" fill="#fba58d"/>
        <path id="Trazado_843242" data-name="Trazado 843242" d="M115.026,17.578c2.514,2.6,6.191,3.494,8.775,6.018,4.9,4.781,8.284,10.285,8.6,17.328-2.024-1-3.521-2.666-5.23-4.071-2.42-1.991-4.78-1.564-5.841,1.369-1.046,2.893-3.012,3.528-5.661,3.537-6.018.019-11.194-2.471-16.211-5.4-4.057-2.369-5.713-1.691-6.538,2.95-.418,2.348-1.388,2.784-3.375,1.457-1.3-.871-2.472-2.537-4.405-1.381s-1.381,3.1-1.4,4.821c-.048,3.553-.1,7.111.014,10.66.065,2.033-1.092,1.988-2.54,2.015-1.425.026-2.287-.148-2.267-1.92.086-7.551-.044-15.106.13-22.655.076-3.3,1.894-5.488,4.823-7.387,5.767-3.741,11.688-6.712,18.574-7.644a33.514,33.514,0,0,1,12.555.3" transform="translate(-26.19 -5.584)" fill="#675d67"/>
        <path id="Trazado_843243" data-name="Trazado 843243" d="M225.71,85.516c0,6.785-.051,13.571.033,20.354.023,1.847-.5,2.489-2.438,2.511-2.013.023-2.089-.942-2.035-2.438.078-2.111.044-4.227.015-6.34-.059-4.239-1.475-6.066-5.5-7.164-6.181-1.685-6.016-1.612-3.582-7.157,2.033-4.629,2-9.4-1.217-13.569-2.689-3.486-6.466-4.577-10.746-3.5-7.1,1.778-10.255,11.338-6.04,18.143,2.669,4.308,2.587,4.51-2.317,5.732-6.429,1.6-7.218,2.591-7.219,9.059,0,1.557-.082,3.12.022,4.67.112,1.661-.07,2.625-2.21,2.571-2.017-.05-2.407-.843-2.372-2.6.086-4.336.055-8.676.011-13.013a4.3,4.3,0,0,1,1.081-3,12.512,12.512,0,0,0,2.382-12.725c-1.327-4.134-.285-8.609-.478-12.927-.063-1.4.931-1.236,1.8-1.236,13.015,0,26.029.034,39.043-.04,1.949-.011,1.778,1.067,1.775,2.323q-.021,10.177-.007,20.355" transform="translate(-59.749 -20.847)" fill="#e4e9ee"/>
        <path id="Trazado_843244" data-name="Trazado 843244" d="M7.529,85.318c0-6.674.059-13.349-.039-20.021-.027-1.8.351-2.487,2.335-2.473q19.02.135,38.042,0c2-.015,2.417.678,2.316,2.481-.269,4.843.362,9.692-1.143,14.518-1.089,3.488.408,6.808,2.715,9.557a5.459,5.459,0,0,1,1.385,3.906c-.086,4.225-.12,8.455.009,12.678.061,2.011-.8,2.311-2.567,2.409-2.083.117-2.054-.974-2.016-2.415.053-2,.021-4,.011-6.006-.022-4.725-1.337-6.453-5.766-7.6-5.885-1.519-5.651-1.421-3.272-7.079,1.927-4.582,2.043-9.411-1.236-13.585-2.723-3.467-6.487-4.559-10.761-3.482-7.057,1.777-10.212,11.406-6,18.147,2.661,4.255,2.555,4.515-2.32,5.722-6.452,1.6-7.276,2.66-7.276,9.383,0,1.446-.083,2.9.021,4.336.122,1.679-.086,2.614-2.23,2.588-2.184-.027-2.237-1.114-2.228-2.712.038-6.785.016-13.57.016-20.355" transform="translate(-2.485 -20.842)" fill="#e4e9ee"/>
        <path id="Trazado_843245" data-name="Trazado 843245" d="M80.731,150.9,54.639,184.253l-.765-.1V173.428c0-13.882.48-14.632,13.652-18.806,4.375-1.386,8.569-3.489,13.279-3.689Z" transform="translate(-17.873 -50.061)" fill="#8492da"/>
        <path id="Trazado_843246" data-name="Trazado 843246" d="M178.023,184c.007-5.095.031-10.189.017-15.284-.014-4.927-2.46-8.44-7.15-9.989-7.55-2.493-15.137-4.871-22.709-7.3-.336-5.629-.337-5.629,5.038-3.891q11.075,3.581,22.152,7.162c6.281,2.03,8.723,5.381,8.745,12.056.015,4.555-.215,9.124.079,13.66.2,3.148-.893,4.175-3.848,3.7a20.351,20.351,0,0,0-2.324-.116" transform="translate(-49.12 -48.608)" fill="#6b7ed5"/>
        <path id="Trazado_843247" data-name="Trazado 843247" d="M123.286,146.838c1.46-5.676.785-11.439.424-17.141-.158-2.493-4.164-4.4-7.664-3.65a21.632,21.632,0,0,1-8.834-.138c-1-2.085-2.037-4.152-2.987-6.259a2.36,2.36,0,0,1,.954-3.184c1.278-.864,2.306-.315,3.268.585a.98.98,0,0,1,.206.26c3.379,6.548,9.193,7.11,15.629,6.61,3.865-.3,7.773-.039,11.661-.058,2.082-.01,3.545.793,3.524,3.035s-1.557,3-3.594,3.005c-.667,0-1.334-.01-2,.005-3.757.086-5.267,1.522-5.363,5.2-.061,2.332.043,4.668-.032,7-.117,3.623-1.381,4.734-5.192,4.727" transform="translate(-34.487 -38.494)" fill="#ef8979"/>
        <path id="Trazado_843248" data-name="Trazado 843248" d="M207.856,125.232c-3.669,0-7.34-.045-11.009.018-1.554.027-2.229-.536-2.163-2.128.078-1.887-.033-3.782.032-5.669.039-1.128-.467-2.532,1.275-3.006,1.592-.434,2.992-1.054,4.651.285,5.214,4.21,9.22,4.231,14.3.019,1.685-1.4,3.067-.613,4.644-.284,1.817.38,1.311,1.812,1.341,2.935.212,7.832.2,7.832-7.73,7.832q-2.669,0-5.338,0" transform="translate(-64.586 -37.793)" fill="#675d67"/>
        <path id="Trazado_843249" data-name="Trazado 843249" d="M34.64,125.205c-3.436,0-6.876-.086-10.308.033-1.9.065-2.593-.63-2.453-2.494.116-1.543-.076-3.109.052-4.651.114-1.373-.8-3.151,1.583-3.752,2.241-.567,4.064-1.005,5.879,1.242,4.262,5.273,7.166,5.249,11.355-.027,1.665-2.1,3.37-1.9,5.56-1.358,2.47.616,1.8,2.442,1.816,3.969.074,7.039.049,7.039-6.834,7.039H34.64" transform="translate(-7.25 -37.766)" fill="#675d67"/>
        <path id="Trazado_843250" data-name="Trazado 843250" d="M29.171,47.656c6.115,0,12.231.069,18.344-.04,1.961-.035,2.8.406,2.74,2.56-.055,1.923-.458,2.754-2.607,2.74q-18.843-.134-37.689,0c-2.13.014-2.587-.8-2.618-2.743C7.307,48,8.255,47.6,10.16,47.623c6.336.088,12.674.033,19.011.033" transform="translate(-2.435 -15.796)" fill="#27afba"/>
        <path id="Trazado_843251" data-name="Trazado 843251" d="M206.1,52.862c-6.225,0-12.451-.039-18.676.023-1.873.019-3.111-.066-3.089-2.578.021-2.328.9-2.706,2.946-2.694q18.342.117,36.686.011c2.007-.009,3.325.073,3.308,2.738-.016,2.567-1.349,2.533-3.166,2.519-6-.051-12.006-.019-18.009-.019" transform="translate(-61.153 -15.796)" fill="#ec5d67"/>
        <path id="Trazado_843252" data-name="Trazado 843252" d="M188.6,230.024c-8.7.675-8.7.675-8.7-7.79,0-3.314.069-6.629-.029-9.94-.047-1.576.457-2.2,2.064-2.094,2.2.151,4.4.16,6.6.23q.033,9.8.067,19.594" transform="translate(-59.671 -69.732)" fill="#fba58d"/>
        <path id="Trazado_843253" data-name="Trazado 843253" d="M192.9,230q-.033-9.8-.067-19.594c6.15-.67,6.15-.67,6.15,5.417,0,3.661-.205,7.337.065,10.979.214,2.869-.793,3.817-3.5,3.376-.868-.142-1.761-.123-2.644-.178" transform="translate(-63.974 -69.707)" fill="#ef8979"/>
        <path id="Trazado_843254" data-name="Trazado 843254" d="M33.679,84.326c.027-4.152,2.062-6.559,5.459-6.456,3.315.1,5.283,2.648,5.234,6.776-.047,3.978-2.293,6.612-5.55,6.509s-5.171-2.638-5.143-6.829" transform="translate(-11.173 -25.833)" fill="#faa48c"/>
        <path id="Trazado_843255" data-name="Trazado 843255" d="M216.89,84.579c-.021,4.124-2.078,6.64-5.374,6.573-3.241-.065-5.343-2.735-5.315-6.755.027-4.048,2.158-6.58,5.5-6.531s5.214,2.462,5.192,6.712" transform="translate(-68.409 -25.833)" fill="#d28652"/>
        <path id="Trazado_843256" data-name="Trazado 843256" d="M83.08,90.336a8.834,8.834,0,0,1-.017,1.657c-.217,1.113.744,2.752-.629,3.258-1.474.542-2.681-.73-3.641-1.8a6.692,6.692,0,0,1-1.658-6.763A3.593,3.593,0,0,1,81.27,84.1c2.078.229,1.836,1.81,1.813,3.25-.015,1,0,1.992,0,2.988" transform="translate(-25.481 -27.889)" fill="#ef8979"/>
        <path id="Trazado_843257" data-name="Trazado 843257" d="M169.709,90.015c0-.885-.025-1.77.007-2.654.045-1.257-.434-2.772,1.471-3.181A3.583,3.583,0,0,1,175.2,85.8c2,2.958-.413,8.755-3.9,9.5-1.163.248-1.647-.1-1.6-1.3.047-1.325.011-2.653.011-3.98" transform="translate(-56.297 -27.892)" fill="#ef8979"/>
        <path id="Trazado_843258" data-name="Trazado 843258" d="M38.047,106.894c-.333-2.253,1.5-1.743,3.017-1.811,2.5-.112,1.754,2.119,1.79,3.062.052,1.355-1.449,3.167-2.549,2.9a3.329,3.329,0,0,1-2.258-4.156" transform="translate(-12.588 -34.86)" fill="#ef8979"/>
        <path id="Trazado_843259" data-name="Trazado 843259" d="M213.166,109.725c-1.2-.418-3.066.154-2.736-1.674.2-1.115-.206-3.008,2.418-3.072,2.742-.067,2.559,1.788,2.748,3.133.274,1.943-1.707.992-2.43,1.613" transform="translate(-69.799 -34.827)" fill="#d28652"/>
        <path id="Trazado_843260" data-name="Trazado 843260" d="M94.113,150.711l-.122-.428.259-.059c-.072.148-.144.3-.212.448l.076.039" transform="translate(-31.182 -49.838)" fill="#8492da"/>
        <path id="Trazado_843261" data-name="Trazado 843261" d="M123.5,101.813a12.146,12.146,0,0,1,7.335,2.275c1.353.928,2.016,2.178,1.014,3.69a2.325,2.325,0,0,1-3.5.643,7.835,7.835,0,0,0-8.193-.671,2.213,2.213,0,0,1-3.1-1.156,2.483,2.483,0,0,1,1.181-3.409,9.52,9.52,0,0,1,5.265-1.373" transform="translate(-38.741 -33.774)" fill="#080708"/>
        <path id="Trazado_843262" data-name="Trazado 843262" d="M142.709,65.991a10.93,10.93,0,0,1,4.307,1.041,2.317,2.317,0,0,1,1.167,3.081A2.141,2.141,0,0,1,145.6,71.66a11.688,11.688,0,0,0-6.172-.017,2.188,2.188,0,0,1-2.764-1.732,2.305,2.305,0,0,1,1.405-2.973,11.409,11.409,0,0,1,4.644-.946" transform="translate(-45.297 -21.893)" fill="#0a0a0a"/>
        <path id="Trazado_843263" data-name="Trazado 843263" d="M107.607,70.8a7.189,7.189,0,0,1-4.884-1.792,2.452,2.452,0,0,1-.756-3.262,2.131,2.131,0,0,1,3.118-.985,4.1,4.1,0,0,0,4.879.031,2.136,2.136,0,0,1,3.148.888,2.408,2.408,0,0,1-.647,3.273,7.126,7.126,0,0,1-4.859,1.848" transform="translate(-33.72 -21.372)" fill="#080708"/>
        <path id="Trazado_843264" data-name="Trazado 843264" d="M111.72,82.349c.095,1.8-.173,3.609-2.354,3.619-2.67.012-2.535-2.154-2.569-4.08-.031-1.848.354-3.512,2.541-3.434,2.458.086,2.45,2.07,2.382,3.9" transform="translate(-35.43 -26.027)" fill="#080708"/>
        <path id="Trazado_843265" data-name="Trazado 843265" d="M146.617,81.981c.1,2.073-.085,4.022-2.484,3.993-2.422-.028-2.427-2.041-2.429-3.886,0-1.762.116-3.568,2.351-3.624,2.425-.061,2.715,1.768,2.562,3.516" transform="translate(-47.011 -26.031)" fill="#080708"/>
      </g>
    </g>
  </g>
</svg>
