<svg xmlns="http://www.w3.org/2000/svg" xmlns:xlink="http://www.w3.org/1999/xlink" width="119.998" height="119.998" viewBox="0 0 119.998 119.998">
  <defs>
    <clipPath id="clip-path">
      <rect id="Rectángulo_381363" data-name="Rectángulo 381363" width="72.839" height="72.878" fill="#fff"/>
    </clipPath>
  </defs>
  <g id="Grupo_1083445" data-name="Grupo 1083445" transform="translate(-495 -2589.163)">
    <g id="Grupo_1072002" data-name="Grupo 1072002" transform="translate(226 1631.162)">
      <path id="Trazado_608971" data-name="Trazado 608971" d="M60,0A60,60,0,1,1,0,60,60,60,0,0,1,60,0Z" transform="translate(269 958)" fill="#0a5e6b"/>
    </g>
    <g id="Grupo_1083397" data-name="Grupo 1083397" transform="translate(518.16 2610.393)">
      <g id="Grupo_1083396" data-name="Grupo 1083396" clip-path="url(#clip-path)">
        <path id="Trazado_843266" data-name="Trazado 843266" d="M0,68.758q0-8.925,0-17.851c0-2.792,1.206-3.975,4.028-4,1.024-.008,2.049.007,3.072-.01.337-.006.83.048.984-.142,1.114-1.376,2.638-1.012,4.061-1.022a1.972,1.972,0,0,0,1.6-.813,4.674,4.674,0,0,1,7.467.03,2.132,2.132,0,0,0,1.773.78c1.334,0,2.647-.2,3.806.963.6.606,1.785.2,2.7.2,4.735.019,5.528.8,5.528,5.519q0,16.9,0,33.8c0,3.335-1.154,4.49-4.477,4.492q-13.169,0-26.337,0C1.112,90.708,0,89.584,0,86.462Q0,77.61,0,68.758m32.257.166c0-5.124.025-10.248-.008-15.372-.028-4.426.624-3.783-3.884-3.9-1.393-.037-1.986.381-1.824,1.813.14,1.236-.3,2.18-1.705,2.19q-7.391.05-14.783.011a1.658,1.658,0,0,1-1.728-1.635c-.353-2.357-.369-2.355-2.773-2.355-.342,0-.683,0-1.025,0-1.849.018-1.964.125-1.964,2.027q-.006,17.129,0,34.258c0,1.867.125,1.993,2,1.994q12.883.009,25.767,0c1.824,0,1.918-.1,1.92-1.9q.011-8.564,0-17.129M17.4,50.987c1.557,0,3.113.008,4.67,0,.8-.006,1.7.2,1.74-1.126.041-1.288-.684-1.437-1.671-1.382a2.674,2.674,0,0,1-2.944-1.6,1.852,1.852,0,0,0-3.249-.231,3.32,3.32,0,0,1-3.713,1.842c-1-.082-1.206.492-1.21,1.365,0,.933.449,1.158,1.27,1.144,1.7-.029,3.405-.009,5.108-.007" transform="translate(0 -30.464)" fill="#fff"/>
        <path id="Trazado_843267" data-name="Trazado 843267" d="M164.152,68.874q0,8.925,0,17.851c0,2.726-1.206,3.953-3.91,3.956q-13.534.017-27.068,0c-2.747,0-4.035-1.287-4.038-4.044q-.018-17.85,0-35.7c0-2.712,1.339-4.019,4.054-4.049q1.463-.017,2.926,0a2.08,2.08,0,0,0,1.838-.645c.7-.825,1.724-.542,2.622-.521a3.024,3.024,0,0,0,2.658-1.11,4.582,4.582,0,0,1,6.966.073,2.66,2.66,0,0,0,2.388,1.032c1.2-.049,2.453-.235,3.343.947.24.318.729.213,1.116.217,1.024.009,2.048,0,3.072.007,2.825.021,4.03,1.2,4.034,3.992q.012,9,0,18M131.9,68.633q0,8.565,0,17.129c0,2.122.039,2.165,2.1,2.166q12.737.007,25.473,0c2.038,0,2.123-.091,2.124-2.169q0-16.1-.005-32.208c-.009-4.43.58-3.828-4.037-3.924-1.263-.026-1.724.382-1.717,1.671.01,1.933-.5,2.37-2.49,2.38-4.392.023-8.784.009-13.176,0a9.7,9.7,0,0,1-1.021-.072,1.568,1.568,0,0,1-1.544-1.618c-.208-2.347-.229-2.345-2.572-2.345a12.037,12.037,0,0,1-1.317-.006c-1.422-.158-1.852.484-1.838,1.864.056,5.709.023,11.419.023,17.128m14.876-17.674c1.7,0,3.407-.035,5.108.013.98.028,1.24-.4,1.252-1.314.015-1.16-.676-1.254-1.526-1.2a2.9,2.9,0,0,1-3.225-1.63,1.865,1.865,0,0,0-3.26-.194c-.8,1.624-2.007,1.938-3.568,1.831-1-.069-1.206.531-1.2,1.39,0,.943.519,1.126,1.315,1.115,1.7-.024,3.405-.007,5.108-.008" transform="translate(-91.315 -30.438)" fill="#fff"/>
        <path id="Trazado_843268" data-name="Trazado 843268" d="M75.4,223.826c-7.172-.088-13.639-2.056-18.929-7.148-.246-.237-.478-.488-.706-.742-.584-.65-.85-1.365-.146-2.068.727-.727,1.434-.4,2.034.225a22.255,22.255,0,0,0,13.49,6.721c8.284,1.106,15.82-.493,21.966-6.6.642-.638,1.33-1.142,2.14-.382.864.811.4,1.586-.26,2.281-3.987,4.217-8.992,6.411-14.623,7.373a27.725,27.725,0,0,1-4.965.338" transform="translate(-39.031 -150.95)" fill="#fff"/>
        <path id="Trazado_843269" data-name="Trazado 843269" d="M75.511,0c7.177.067,13.63,2.066,18.917,7.153.246.237.478.488.705.743.583.654.836,1.372.129,2.068-.733.721-1.436.382-2.033-.242a21.659,21.659,0,0,0-6.5-4.656C77.844.886,64.86,2.041,57.77,9.6c-.621.662-1.334,1.126-2.139.365-.876-.827-.355-1.587.291-2.272,3.985-4.221,9-6.382,14.627-7.353A26.823,26.823,0,0,1,75.511,0" transform="translate(-39.014 0)" fill="#fff"/>
        <path id="Trazado_843270" data-name="Trazado 843270" d="M17.033,91.529c0-.534-.021-1.07.008-1.6a3.16,3.16,0,0,1,.182-.992c.6-1.5,2.591-2.038,5.618-1.55a2.616,2.616,0,0,1,2.514,2.707c.018.193.014.388.019.582.1,4.566-.745,5.38-5.3,5.089-2.189-.139-3.026-1.021-3.046-3.214,0-.34,0-.68,0-1.02Zm5.553,0c.191-1.118-.244-1.559-1.412-1.543-1.079.014-1.439.419-1.432,1.458.007,1.015.182,1.627,1.42,1.619,1.15-.007,1.621-.4,1.424-1.533" transform="translate(-12.04 -61.674)" fill="#fff"/>
        <path id="Trazado_843271" data-name="Trazado 843271" d="M21.132,167.593c-.583,0-1.168.032-1.749-.006a2.342,2.342,0,0,1-2.377-2.429c-.048-1.067-.04-2.139-.005-3.207a2.394,2.394,0,0,1,2.374-2.622c4.71-.275,6.266-.256,5.965,5.233-.119,2.186-.955,3.017-3.188,3.041-.34,0-.68,0-1.02,0v-.01m1.408-4.05c.222-1.039-.143-1.563-1.366-1.548-1.068.013-1.474.382-1.472,1.454,0,1.051.223,1.637,1.457,1.611,1.068-.022,1.578-.343,1.38-1.517" transform="translate(-12.003 -112.612)" fill="#fff"/>
        <path id="Trazado_843272" data-name="Trazado 843272" d="M21.081,131.606c-.583,0-1.168.034-1.748-.007a2.293,2.293,0,0,1-2.312-2.324c-.059-1.162-.04-2.331,0-3.5a2.272,2.272,0,0,1,1.994-2.341,11.725,11.725,0,0,1,4.341.025,1.393,1.393,0,0,1,.281.076c1.927.808,1.877,2.395,1.622,5.835-.115,1.556-1.1,2.208-2.863,2.242-.437.008-.874,0-1.311,0v-.012m1.476-4.03c.181-1.1-.2-1.569-1.393-1.569-1.2,0-1.458.54-1.452,1.588.006,1.006.291,1.482,1.4,1.487,1.128.005,1.649-.35,1.443-1.506" transform="translate(-12.01 -87.16)" fill="#fff"/>
        <path id="Trazado_843273" data-name="Trazado 843273" d="M60.306,93.068c-1.8,0-3.605.008-5.408-.006-.914-.007-1.709-.288-1.707-1.364s.818-1.364,1.716-1.369q5.408-.028,10.816,0c.951.005,1.842.3,1.786,1.454-.05,1.04-.882,1.287-1.8,1.286q-2.7,0-5.408,0" transform="translate(-37.616 -63.87)" fill="#fff"/>
        <path id="Trazado_843274" data-name="Trazado 843274" d="M60.4,176.12H65.8c.859,0,1.637.243,1.7,1.211.069,1.059-.751,1.456-1.638,1.466q-5.552.065-11.1.01c-.9-.008-1.669-.395-1.6-1.485.068-1.02.832-1.2,1.68-1.2H60.4" transform="translate(-37.593 -124.549)" fill="#fff"/>
        <path id="Trazado_843275" data-name="Trazado 843275" d="M60.325,104.191c1.8,0,3.6-.007,5.405,0,.906.005,1.749.283,1.78,1.316.034,1.141-.866,1.42-1.817,1.424q-5.405.022-10.81,0c-.9,0-1.706-.31-1.69-1.389s.823-1.34,1.728-1.348c1.8-.016,3.6,0,5.405,0" transform="translate(-37.617 -73.679)" fill="#fff"/>
        <path id="Trazado_843276" data-name="Trazado 843276" d="M60.385,129c-1.8,0-3.6.01-5.405,0-.891-.007-1.733-.224-1.777-1.3-.047-1.173.824-1.442,1.777-1.446q5.332-.023,10.664,0c.95,0,1.875.254,1.874,1.376s-.919,1.37-1.874,1.374c-1.753.008-3.506,0-5.259,0" transform="translate(-37.624 -89.274)" fill="#fff"/>
        <path id="Trazado_843277" data-name="Trazado 843277" d="M60.3,164.942c-1.753,0-3.506.012-5.259-.006-.942-.01-1.847-.228-1.83-1.4s.93-1.35,1.871-1.351q5.259-.009,10.518,0c.943,0,1.891.2,1.92,1.323.033,1.233-.973,1.422-1.96,1.43-1.753.015-3.506,0-5.259,0" transform="translate(-37.627 -114.694)" fill="#fff"/>
        <path id="Trazado_843278" data-name="Trazado 843278" d="M60.407,140.162q2.7,0,5.4,0c.937,0,1.709.334,1.7,1.37,0,.947-.764,1.341-1.611,1.347-3.7.028-7.4.032-11.093-.007-.885-.009-1.69-.365-1.615-1.46.067-.988.815-1.241,1.667-1.246,1.849-.01,3.7,0,5.547,0" transform="translate(-37.614 -99.12)" fill="#fff"/>
        <path id="Trazado_843279" data-name="Trazado 843279" d="M154.409,91.424c-.081,1.126.153,1.992-.193,2.761-1.029,2.288-3.14,1.711-4.964,1.73-1.808.018-2.833-.681-3.1-2.062a12.206,12.206,0,0,1-.024-4.207c.23-1.459,1.292-2.164,3.327-2.16,1.783,0,3.877-.488,4.764,1.791a6.767,6.767,0,0,1,.189,2.147m-5.6.194c-.1.96.03,1.62,1.261,1.61,1.094-.008,1.61-.29,1.59-1.483-.018-1.071-.265-1.612-1.482-1.592-1.107.018-1.537.415-1.369,1.465" transform="translate(-103.22 -61.839)" fill="#fff"/>
        <path id="Trazado_843280" data-name="Trazado 843280" d="M154.326,163.583c0,.583.046,1.171-.009,1.748a2.256,2.256,0,0,1-2.227,2.264c-1.257.086-2.525.025-3.788.01a2.182,2.182,0,0,1-1.444-.619c-.89-.8-1.278-4.465-.626-6.009.643-1.521,1.955-1.739,3.391-1.691.146.005.292,0,.437,0,3.748,0,4.283.535,4.267,4.3m-2.747-.03c.18-1.169-.366-1.521-1.492-1.531-1.18-.01-1.346.569-1.35,1.543s.19,1.537,1.36,1.526c1.134-.011,1.664-.375,1.482-1.537" transform="translate(-103.183 -112.641)" fill="#fff"/>
        <path id="Trazado_843281" data-name="Trazado 843281" d="M154.465,127.639a17.454,17.454,0,0,1-.01,1.755,2.248,2.248,0,0,1-2.245,2.254,33.562,33.562,0,0,1-3.657.006,2.342,2.342,0,0,1-2.375-2.313,19.537,19.537,0,0,1,0-3.507c.207-2.017,1.573-2.641,5.127-2.474,2.17.1,3.1.924,3.165,2.814.017.487,0,.976,0,1.464h-.012m-4.053,1.444c1.336.265,1.3-.652,1.341-1.605.05-1.127-.489-1.37-1.509-1.406-1.328-.047-1.339.7-1.368,1.671-.033,1.115.418,1.534,1.537,1.341" transform="translate(-103.321 -87.221)" fill="#fff"/>
        <path id="Trazado_843282" data-name="Trazado 843282" d="M189.632,106.941c-1.756,0-3.512.009-5.268,0-.954-.008-1.868-.277-1.875-1.392-.008-1.143.922-1.356,1.874-1.357q5.341,0,10.682,0c.9,0,1.743.235,1.787,1.3.048,1.161-.827,1.438-1.786,1.449-1.8.02-3.609.006-5.414,0" transform="translate(-129.054 -73.678)" fill="#fff"/>
        <path id="Trazado_843283" data-name="Trazado 843283" d="M189.55,129c-1.756,0-3.512.007-5.268,0-.9,0-1.762-.243-1.789-1.295-.029-1.125.846-1.446,1.81-1.451q5.414-.023,10.829,0c.911,0,1.717.32,1.709,1.381s-.82,1.352-1.73,1.36c-1.854.016-3.707.005-5.561.006" transform="translate(-129.056 -89.279)" fill="#fff"/>
        <path id="Trazado_843284" data-name="Trazado 843284" d="M189.722,164.941c-1.756,0-3.512.011-5.268,0-1-.008-1.983-.242-1.946-1.463.034-1.142,1-1.291,1.937-1.291q5.268,0,10.536,0c.951,0,1.863.213,1.866,1.367s-.908,1.377-1.857,1.384c-1.756.013-3.512,0-5.268,0" transform="translate(-129.066 -114.693)" fill="#fff"/>
        <path id="Trazado_843285" data-name="Trazado 843285" d="M189.62,93.071c-1.8,0-3.607.006-5.411,0-.917,0-1.737-.291-1.735-1.344,0-1.036.825-1.381,1.728-1.387q5.411-.033,10.821,0c.931.007,1.848.271,1.8,1.445-.046,1.064-.89,1.284-1.79,1.287-1.8.006-3.607,0-5.411,0" transform="translate(-129.043 -63.872)" fill="#fff"/>
        <path id="Trazado_843286" data-name="Trazado 843286" d="M189.537,142.9c-1.706,0-3.412.016-5.118-.008-1-.014-1.976-.269-1.909-1.5.063-1.145,1.038-1.248,1.968-1.247q5.191,0,10.383,0c.989,0,2.005.126,1.981,1.382s-1.085,1.348-2.04,1.362c-1.754.027-3.509.008-5.264.006" transform="translate(-129.067 -99.108)" fill="#fff"/>
        <path id="Trazado_843287" data-name="Trazado 843287" d="M189.723,176.114c1.8,0,3.6,0,5.4,0,.923,0,1.7.281,1.714,1.35.009,1-.77,1.332-1.6,1.338q-5.548.046-11.1-.013c-.883-.01-1.721-.391-1.654-1.449s.93-1.234,1.827-1.231c1.8.005,3.6,0,5.4,0" transform="translate(-129.054 -124.544)" fill="#fff"/>
      </g>
    </g>
  </g>
</svg>
